<svg xmlns="http://www.w3.org/2000/svg" width="24" height="24" viewBox="0 0 24 24">
    <path fill="#7C0000" fill-rule="evenodd" d="M15.762 1.555l6.683 6.683a5.32 5.32 0 0 1 0 7.524l-6.683 6.683a5.32 5.32 0 0 1-7.524 0l-6.683-6.683a5.32 5.32 0 0 1 0-7.524l6.683-6.683a5.32 5.32 0 0 1 7.524 0zM10.66 5.622v6.847c0 .72.529 1.304 1.182 1.304.652 0 1.181-.584 1.181-1.304V5.622c0-.72-.529-1.304-1.181-1.304-.653 0-1.182.584-1.182 1.304zM12 19.682a1.773 1.773 0 1 0 0-3.546 1.773 1.773 0 0 0 0 3.546z"/>
</svg>
