<svg xmlns="http://www.w3.org/2000/svg" width="16" height="20" viewBox="0 0 16 20">
    <path fill="#107E7A" fill-rule="nonzero" stroke="#107E7A" stroke-width=".5" d="M2.853 1.073C1.833 1.073 1 1.889 1 2.887v14.107c0 .998.834 1.814 1.853 1.814h11.735a.423.423 0 0 0 .412-.403V4.298a.407.407 0 0 0-.412-.403h-.11a1.006 1.006 0 0 1-.92-1.008c0-.565.453-1.008 1.03-1.008.228 0 .412-.18.412-.403a.407.407 0 0 0-.412-.403H2.853zm0 .806h10.236c-.205.292-.354.629-.354 1.008 0 .382.152.714.36 1.008H2.854a1.008 1.008 0 1 1 0-2.016zm-1.03 2.469c.3.203.64.353 1.03.353h4.735v4.837a.411.411 0 0 0 .65.327l1.82-1.247 1.822 1.247a.411.411 0 1 0 .65-.327V4.7h1.646v13.301H2.853c-.577 0-1.03-.442-1.03-1.008V4.348zm6.589.353h3.294v4.056l-1.41-.964a.43.43 0 0 0-.475 0l-1.41.964V4.7zm-2.883 7.255a.407.407 0 0 0-.411.403c0 .223.183.403.411.403h6.589c.228 0 .411-.18.411-.403a.407.407 0 0 0-.411-.403H5.529zm0 2.822a.407.407 0 0 0-.411.403c0 .223.183.403.411.403h6.589c.228 0 .411-.18.411-.403a.407.407 0 0 0-.411-.403H5.529z"/>
</svg>
