<svg xmlns="http://www.w3.org/2000/svg" width="28" height="28" viewBox="0 0 28 28">
    <g fill="none" fill-rule="evenodd">
        <path d="M-1-1h30v30H-1z"/>
        <g stroke-linecap="round" stroke-linejoin="round" stroke-width="1.5">
            <path stroke="#575700" d="M18.42 17.589c2.288-1.714 3.844-4.09 3.844-7.098 0-4.577-3.56-8.287-7.953-8.287-4.392 0-7.952 3.71-7.952 8.287 0 3.009 1.557 5.384 3.843 7.098.688.646.576 1.92.576 1.92v4.895s.403 2.617 3.533 2.617c3.131 0 3.534-2.617 3.534-2.617v-4.895s-.112-1.3.576-1.92z"/>
            <path stroke="#F5C400" d="M26.241.875l-2.65 2.659M26.241 19.93l-2.65-2.659M27.125 10.172h-1.767M2.384 19.93l2.65-2.658M2.384.875l2.65 2.66M1.5 10.172h1.767"/>
            <path stroke="#575700" d="M10.777 20.797s3.55 2.04 7.07 0"/>
        </g>
    </g>
</svg>
